<mxfile host="app.diagrams.net" modified="2023-12-14T06:20:12.648Z" agent="Mozilla/5.0 (Windows NT 10.0; Win64; x64) AppleWebKit/537.36 (KHTML, like Gecko) Chrome/120.0.0.0 Safari/537.36" etag="OsUx_oKfdvFWIWuWeI52" version="22.1.8" type="device">
  <diagram id="C5RBs43oDa-KdzZeNtuy" name="Page-1">
    <mxGraphModel dx="1596" dy="463" grid="1" gridSize="10" guides="1" tooltips="1" connect="1" arrows="1" fold="1" page="1" pageScale="1" pageWidth="827" pageHeight="1169" math="0" shadow="0">
      <root>
        <mxCell id="WIyWlLk6GJQsqaUBKTNV-0" />
        <mxCell id="WIyWlLk6GJQsqaUBKTNV-1" parent="WIyWlLk6GJQsqaUBKTNV-0" />
        <mxCell id="-01R1c8GGRXRvKqPV9T0-12" value="Start&lt;br&gt;Open page" style="ellipse;whiteSpace=wrap;html=1;" vertex="1" parent="WIyWlLk6GJQsqaUBKTNV-1">
          <mxGeometry x="418.5" y="20" width="106" height="70" as="geometry" />
        </mxCell>
        <mxCell id="-01R1c8GGRXRvKqPV9T0-13" value="Récupération des données Json" style="rounded=0;whiteSpace=wrap;html=1;" vertex="1" parent="WIyWlLk6GJQsqaUBKTNV-1">
          <mxGeometry x="414" y="120" width="115" height="50" as="geometry" />
        </mxCell>
        <mxCell id="-01R1c8GGRXRvKqPV9T0-14" value="Afficher toutes les recettes" style="rounded=0;whiteSpace=wrap;html=1;" vertex="1" parent="WIyWlLk6GJQsqaUBKTNV-1">
          <mxGeometry x="600" y="120" width="90" height="50" as="geometry" />
        </mxCell>
        <mxCell id="-01R1c8GGRXRvKqPV9T0-15" value="If search in &lt;br&gt;mainSearch" style="rhombus;whiteSpace=wrap;html=1;" vertex="1" parent="WIyWlLk6GJQsqaUBKTNV-1">
          <mxGeometry x="-310" y="80" width="100" height="100" as="geometry" />
        </mxCell>
        <mxCell id="-01R1c8GGRXRvKqPV9T0-16" value="" style="endArrow=classic;html=1;rounded=0;edgeStyle=orthogonalEdgeStyle;exitX=1;exitY=0.5;exitDx=0;exitDy=0;entryX=0;entryY=0.5;entryDx=0;entryDy=0;" edge="1" parent="WIyWlLk6GJQsqaUBKTNV-1" source="-01R1c8GGRXRvKqPV9T0-15" target="-01R1c8GGRXRvKqPV9T0-21">
          <mxGeometry relative="1" as="geometry">
            <mxPoint x="30" y="60" as="sourcePoint" />
            <mxPoint x="-150" y="130" as="targetPoint" />
          </mxGeometry>
        </mxCell>
        <mxCell id="-01R1c8GGRXRvKqPV9T0-17" value="oui" style="edgeLabel;resizable=0;html=1;align=center;verticalAlign=middle;" connectable="0" vertex="1" parent="-01R1c8GGRXRvKqPV9T0-16">
          <mxGeometry relative="1" as="geometry" />
        </mxCell>
        <mxCell id="-01R1c8GGRXRvKqPV9T0-18" value="" style="endArrow=classic;html=1;rounded=0;edgeStyle=orthogonalEdgeStyle;exitX=0.5;exitY=1;exitDx=0;exitDy=0;entryX=0.5;entryY=0;entryDx=0;entryDy=0;" edge="1" parent="WIyWlLk6GJQsqaUBKTNV-1" source="-01R1c8GGRXRvKqPV9T0-15" target="-01R1c8GGRXRvKqPV9T0-41">
          <mxGeometry relative="1" as="geometry">
            <mxPoint x="-250" y="170" as="sourcePoint" />
            <mxPoint x="-260" y="280" as="targetPoint" />
          </mxGeometry>
        </mxCell>
        <mxCell id="-01R1c8GGRXRvKqPV9T0-19" value="non" style="edgeLabel;resizable=0;html=1;align=center;verticalAlign=middle;" connectable="0" vertex="1" parent="-01R1c8GGRXRvKqPV9T0-18">
          <mxGeometry relative="1" as="geometry" />
        </mxCell>
        <mxCell id="-01R1c8GGRXRvKqPV9T0-21" value="if nbrType&lt;br&gt;&amp;gt;= 3" style="rhombus;whiteSpace=wrap;html=1;" vertex="1" parent="WIyWlLk6GJQsqaUBKTNV-1">
          <mxGeometry x="-150" y="85" width="90" height="90" as="geometry" />
        </mxCell>
        <mxCell id="-01R1c8GGRXRvKqPV9T0-22" value="" style="endArrow=classic;html=1;rounded=0;edgeStyle=orthogonalEdgeStyle;exitX=1;exitY=0.5;exitDx=0;exitDy=0;entryX=0;entryY=0.5;entryDx=0;entryDy=0;" edge="1" parent="WIyWlLk6GJQsqaUBKTNV-1" source="-01R1c8GGRXRvKqPV9T0-21" target="-01R1c8GGRXRvKqPV9T0-24">
          <mxGeometry relative="1" as="geometry">
            <mxPoint x="-100" y="40" as="sourcePoint" />
            <mxPoint x="-30" y="80" as="targetPoint" />
          </mxGeometry>
        </mxCell>
        <mxCell id="-01R1c8GGRXRvKqPV9T0-23" value="oui" style="edgeLabel;resizable=0;html=1;align=center;verticalAlign=middle;" connectable="0" vertex="1" parent="-01R1c8GGRXRvKqPV9T0-22">
          <mxGeometry relative="1" as="geometry" />
        </mxCell>
        <mxCell id="-01R1c8GGRXRvKqPV9T0-24" value="return type" style="rounded=0;whiteSpace=wrap;html=1;" vertex="1" parent="WIyWlLk6GJQsqaUBKTNV-1">
          <mxGeometry x="10" y="100" width="50" height="60" as="geometry" />
        </mxCell>
        <mxCell id="-01R1c8GGRXRvKqPV9T0-25" value="Check if &lt;br&gt;type match with name" style="rhombus;whiteSpace=wrap;html=1;" vertex="1" parent="WIyWlLk6GJQsqaUBKTNV-1">
          <mxGeometry x="130" width="110" height="95" as="geometry" />
        </mxCell>
        <mxCell id="-01R1c8GGRXRvKqPV9T0-31" value="Check if &lt;br&gt;type match with ingredients" style="rhombus;whiteSpace=wrap;html=1;" vertex="1" parent="WIyWlLk6GJQsqaUBKTNV-1">
          <mxGeometry x="130" y="130" width="110" height="95" as="geometry" />
        </mxCell>
        <mxCell id="-01R1c8GGRXRvKqPV9T0-32" value="Check if &lt;br&gt;type match with description" style="rhombus;whiteSpace=wrap;html=1;" vertex="1" parent="WIyWlLk6GJQsqaUBKTNV-1">
          <mxGeometry x="130" y="260" width="110" height="95" as="geometry" />
        </mxCell>
        <mxCell id="-01R1c8GGRXRvKqPV9T0-41" value="il search &lt;br&gt;with ingredients filter" style="rhombus;whiteSpace=wrap;html=1;" vertex="1" parent="WIyWlLk6GJQsqaUBKTNV-1">
          <mxGeometry x="-310" y="280" width="100" height="110" as="geometry" />
        </mxCell>
      </root>
    </mxGraphModel>
  </diagram>
</mxfile>
